<?xml version="1.0" encoding="UTF-8" standalone="no"?>
<!-- Created with Inkscape (http://www.inkscape.org/) -->

<svg
   width="512"
   height="255.99998"
   viewBox="0 0 135.46667 67.733359"
   version="1.1"
   id="svg1"
   xml:space="preserve"
   xmlns:xlink="http://www.w3.org/1999/xlink"
   xmlns="http://www.w3.org/2000/svg"
   xmlns:svg="http://www.w3.org/2000/svg"
   xmlns:rdf="http://www.w3.org/1999/02/22-rdf-syntax-ns#"
   xmlns:cc="http://creativecommons.org/ns#"><defs
     id="defs1"><rect
       x="102.53048"
       y="210.01071"
       width="91.216774"
       height="82.731491"
       id="rect4" /><color-profile
       name="sRGB"
       xlink:href="file:///usr/share/color/icc/colord/sRGB.icc"
       id="color-profile1" /><rect
       x="102.53048"
       y="210.01071"
       width="91.216774"
       height="82.731491"
       id="rect4-6" /></defs><g
     id="layer1"><polygon
       points="140.8,78.1312 140.8,78.8864 139.52,78.5536 138.24,78.1952 136.96,77.888 135.68,77.6448 134.4,77.4272 133.12,77.248 130.56,77.0048 126.72,76.9024 124.16,76.9664 121.6,77.1072 119.04,77.4144 115.2,77.9904 111.36,78.72 108.8,79.2576 106.24,79.808 102.4,80.6656 99.84,81.2288 96,82.048 93.44,82.5728 89.6,83.3152 87.04,83.7504 83.2,84.3264 80.64,84.6592 76.8,85.0432 74.24,85.2096 70.4,85.4528 66.56,85.6064 64,85.6576 60.16,85.7088 57.6,85.7088 53.76,85.6576 51.2,85.5936 48.64,85.504 44.8,85.3248 40.96,85.0816 38.4,84.9024 34.56,84.5568 32,84.288 28.16,83.8016 25.6,83.4176 21.76,82.7136 19.2,82.0736 17.92,81.6768 16.64,81.2032 15.36,80.576 14.08,79.6288 13.44,78.848 13.056,77.9904 12.8,76.8 13.056,75.584 13.44,74.7776 14.08,73.9968 15.36,73.0496 16.64,72.4096 17.92,71.9232 19.2,71.5392 21.76,70.8864 25.6,70.1696 28.16,69.7856 32,69.312 34.56,69.0432 38.4,68.7104 40.96,68.5312 44.8,68.3008 47.36,68.1856 51.2,68.032 55.04,67.9424 57.6,67.8912 61.44,67.8656 64,67.8784 67.84,67.904 70.4,67.9424 74.24,68.0448 76.8,68.1216 80.64,68.2752 83.2,68.4032 85.76,68.544 89.6,68.8 92.16,68.992 96,69.312 99.84,69.696 102.4,69.9776 104.96,70.2848 108.8,70.7968 111.36,71.1808 115.2,71.8208 117.76,72.2816 121.6,73.0368 124.16,73.5872 128,74.4832 130.56,75.1232 134.4,76.1728 136.96,76.9152 138.24,77.2992 139.52,77.7088 "
       fill="none"
       stroke="#000000"
       stroke-width="0.5"
       id="polygon1"
       transform="matrix(0.86026694,0.07059853,-0.07010593,0.85426444,2.3232992,-41.700438)" /><polygon
       points="102.4,80.6656 99.84,81.2288 96,82.048 93.44,82.5728 89.6,83.3152 87.04,83.7504 83.2,84.3264 80.64,84.6592 76.8,85.0432 74.24,85.2096 70.4,85.4528 66.56,85.6064 64,85.6576 60.16,85.7088 57.6,85.7088 53.76,85.6576 51.2,85.5936 48.64,85.504 44.8,85.3248 40.96,85.0816 38.4,84.9024 34.56,84.5568 32,84.288 28.16,83.8016 25.6,83.4176 21.76,82.7136 19.2,82.0736 17.92,81.6768 16.64,81.2032 15.36,80.576 14.08,79.6288 13.44,78.848 13.056,77.9904 12.8,76.8 13.056,75.584 13.44,74.7776 14.08,73.9968 15.36,73.0496 16.64,72.4096 17.92,71.9232 19.2,71.5392 21.76,70.8864 25.6,70.1696 28.16,69.7856 32,69.312 34.56,69.0432 38.4,68.7104 40.96,68.5312 44.8,68.3008 47.36,68.1856 51.2,68.032 55.04,67.9424 57.6,67.8912 61.44,67.8656 64,67.8784 67.84,67.904 70.4,67.9424 74.24,68.0448 76.8,68.1216 80.64,68.2752 83.2,68.4032 85.76,68.544 89.6,68.8 92.16,68.992 96,69.312 99.84,69.696 102.4,69.9776 104.96,70.2848 108.8,70.7968 111.36,71.1808 115.2,71.8208 117.76,72.2816 121.6,73.0368 124.16,73.5872 128,74.4832 130.56,75.1232 134.4,76.1728 136.96,76.9152 138.24,77.2992 139.52,77.7088 140.8,78.1312 140.8,78.8864 139.52,78.5536 138.24,78.1952 136.96,77.888 135.68,77.6448 134.4,77.4272 133.12,77.248 130.56,77.0048 126.72,76.9024 124.16,76.9664 121.6,77.1072 119.04,77.4144 115.2,77.9904 111.36,78.72 108.8,79.2576 106.24,79.808 "
       fill="none"
       stroke="#000000"
       stroke-width="0.5"
       id="polygon1-2"
       transform="matrix(0.92250301,0.0900872,-0.07517776,1.0900836,-0.38540691,-60.864071)"
       style="stroke:#100d48;stroke-width:0.209703;stroke-dasharray:0.419406, 0.209703, 0.104852, 0.209703;stroke-dashoffset:0;stroke-opacity:0.0235294" /><polygon
       points="87.04,83.7504 83.2,84.3264 80.64,84.6592 76.8,85.0432 74.24,85.2096 70.4,85.4528 66.56,85.6064 64,85.6576 60.16,85.7088 57.6,85.7088 53.76,85.6576 51.2,85.5936 48.64,85.504 44.8,85.3248 40.96,85.0816 38.4,84.9024 34.56,84.5568 32,84.288 28.16,83.8016 25.6,83.4176 21.76,82.7136 19.2,82.0736 17.92,81.6768 16.64,81.2032 15.36,80.576 14.08,79.6288 13.44,78.848 13.056,77.9904 12.8,76.8 13.056,75.584 13.44,74.7776 14.08,73.9968 15.36,73.0496 16.64,72.4096 17.92,71.9232 19.2,71.5392 21.76,70.8864 25.6,70.1696 28.16,69.7856 32,69.312 34.56,69.0432 38.4,68.7104 40.96,68.5312 44.8,68.3008 47.36,68.1856 51.2,68.032 55.04,67.9424 57.6,67.8912 61.44,67.8656 64,67.8784 67.84,67.904 70.4,67.9424 74.24,68.0448 76.8,68.1216 80.64,68.2752 83.2,68.4032 85.76,68.544 89.6,68.8 92.16,68.992 96,69.312 99.84,69.696 102.4,69.9776 104.96,70.2848 108.8,70.7968 111.36,71.1808 115.2,71.8208 117.76,72.2816 121.6,73.0368 124.16,73.5872 128,74.4832 130.56,75.1232 134.4,76.1728 136.96,76.9152 138.24,77.2992 139.52,77.7088 140.8,78.1312 140.8,78.8864 139.52,78.5536 138.24,78.1952 136.96,77.888 135.68,77.6448 134.4,77.4272 133.12,77.248 130.56,77.0048 126.72,76.9024 124.16,76.9664 121.6,77.1072 119.04,77.4144 115.2,77.9904 111.36,78.72 108.8,79.2576 106.24,79.808 102.4,80.6656 99.84,81.2288 96,82.048 93.44,82.5728 89.6,83.3152 "
       fill="none"
       stroke="#000000"
       stroke-width="0.5"
       id="polygon1-2-0"
       transform="matrix(0.96321833,0.10664379,-0.07849578,1.2904235,-2.2273028,-77.308891)"
       style="stroke:#2840d6;stroke-width:0.209703;stroke-dasharray:0.419406, 0.209703, 0.104852, 0.209703;stroke-dashoffset:0;stroke-opacity:1" /><polygon
       points="76.8,85.0432 74.24,85.2096 70.4,85.4528 66.56,85.6064 64,85.6576 60.16,85.7088 57.6,85.7088 53.76,85.6576 51.2,85.5936 48.64,85.504 44.8,85.3248 40.96,85.0816 38.4,84.9024 34.56,84.5568 32,84.288 28.16,83.8016 25.6,83.4176 21.76,82.7136 19.2,82.0736 17.92,81.6768 16.64,81.2032 15.36,80.576 14.08,79.6288 13.44,78.848 13.056,77.9904 12.8,76.8 13.056,75.584 13.44,74.7776 14.08,73.9968 15.36,73.0496 16.64,72.4096 17.92,71.9232 19.2,71.5392 21.76,70.8864 25.6,70.1696 28.16,69.7856 32,69.312 34.56,69.0432 38.4,68.7104 40.96,68.5312 44.8,68.3008 47.36,68.1856 51.2,68.032 55.04,67.9424 57.6,67.8912 61.44,67.8656 64,67.8784 67.84,67.904 70.4,67.9424 74.24,68.0448 76.8,68.1216 80.64,68.2752 83.2,68.4032 85.76,68.544 89.6,68.8 92.16,68.992 96,69.312 99.84,69.696 102.4,69.9776 104.96,70.2848 108.8,70.7968 111.36,71.1808 115.2,71.8208 117.76,72.2816 121.6,73.0368 124.16,73.5872 128,74.4832 130.56,75.1232 134.4,76.1728 136.96,76.9152 138.24,77.2992 139.52,77.7088 140.8,78.1312 140.8,78.8864 139.52,78.5536 138.24,78.1952 136.96,77.888 135.68,77.6448 134.4,77.4272 133.12,77.248 130.56,77.0048 126.72,76.9024 124.16,76.9664 121.6,77.1072 119.04,77.4144 115.2,77.9904 111.36,78.72 108.8,79.2576 106.24,79.808 102.4,80.6656 99.84,81.2288 96,82.048 93.44,82.5728 89.6,83.3152 87.04,83.7504 83.2,84.3264 80.64,84.6592 "
       fill="none"
       stroke="#000000"
       stroke-width="0.5"
       id="polygon1-2-6"
       transform="matrix(1.0068209,0.13109669,-0.08204909,1.5863112,-4.116402,-101.50115)"
       style="stroke:#0e2391;stroke-width:0.209703;stroke-dasharray:0.419406, 0.209703, 0.104852, 0.209703;stroke-dashoffset:0;stroke-opacity:0.87882" /><polygon
       points="80.64,84.6592 76.8,85.0432 74.24,85.2096 70.4,85.4528 66.56,85.6064 64,85.6576 60.16,85.7088 57.6,85.7088 53.76,85.6576 51.2,85.5936 48.64,85.504 44.8,85.3248 40.96,85.0816 38.4,84.9024 34.56,84.5568 32,84.288 28.16,83.8016 25.6,83.4176 21.76,82.7136 19.2,82.0736 17.92,81.6768 16.64,81.2032 15.36,80.576 14.08,79.6288 13.44,78.848 13.056,77.9904 12.8,76.8 13.056,75.584 13.44,74.7776 14.08,73.9968 15.36,73.0496 16.64,72.4096 17.92,71.9232 19.2,71.5392 21.76,70.8864 25.6,70.1696 28.16,69.7856 32,69.312 34.56,69.0432 38.4,68.7104 40.96,68.5312 44.8,68.3008 47.36,68.1856 51.2,68.032 55.04,67.9424 57.6,67.8912 61.44,67.8656 64,67.8784 67.84,67.904 70.4,67.9424 74.24,68.0448 76.8,68.1216 80.64,68.2752 83.2,68.4032 85.76,68.544 89.6,68.8 92.16,68.992 96,69.312 99.84,69.696 102.4,69.9776 104.96,70.2848 108.8,70.7968 111.36,71.1808 115.2,71.8208 117.76,72.2816 121.6,73.0368 124.16,73.5872 128,74.4832 130.56,75.1232 134.4,76.1728 136.96,76.9152 138.24,77.2992 139.52,77.7088 140.8,78.1312 140.8,78.8864 139.52,78.5536 138.24,78.1952 136.96,77.888 135.68,77.6448 134.4,77.4272 133.12,77.248 130.56,77.0048 126.72,76.9024 124.16,76.9664 121.6,77.1072 119.04,77.4144 115.2,77.9904 111.36,78.72 108.8,79.2576 106.24,79.808 102.4,80.6656 99.84,81.2288 96,82.048 93.44,82.5728 89.6,83.3152 87.04,83.7504 83.2,84.3264 "
       fill="none"
       stroke="#000000"
       stroke-width="0.5"
       id="polygon1-2-7"
       transform="matrix(1.0447655,0.15309499,-0.08514133,1.8524974,-5.8933878,-123.13688)"
       style="stroke:#2841d7;stroke-width:0.209703;stroke-dasharray:0.419406, 0.209703, 0.104852, 0.209703;stroke-dashoffset:0;stroke-opacity:0.731372" /><text
       xml:space="preserve"
       transform="matrix(0.41174484,0,0,0.41867597,-20.307574,-69.007157)"
       id="text4"
       style="font-style:italic;font-variant:normal;font-weight:500;font-stretch:normal;font-size:30.588px;font-family:Z003;-inkscape-font-specification:'Z003, Medium Italic';font-variant-ligatures:normal;font-variant-caps:normal;font-variant-numeric:normal;font-variant-east-asian:normal;text-align:start;writing-mode:lr-tb;direction:ltr;white-space:pre;shape-inside:url(#rect4);fill:#8889f7;fill-opacity:1;stroke:#020203;stroke-width:0.820157;stroke-dasharray:none;stroke-dashoffset:0;stroke-opacity:0.666667"><tspan
         x="102.53125"
         y="234.54134"
         id="tspan1">Wing</tspan></text><text
       xml:space="preserve"
       transform="matrix(0.41174484,0,0,0.41867597,6.4042737,-64.852082)"
       id="text4-7"
       style="font-style:italic;font-variant:normal;font-weight:500;font-stretch:normal;font-size:30.588px;font-family:Z003;-inkscape-font-specification:'Z003, Medium Italic';font-variant-ligatures:normal;font-variant-caps:normal;font-variant-numeric:normal;font-variant-east-asian:normal;text-align:start;writing-mode:lr-tb;direction:ltr;white-space:pre;shape-inside:url(#rect4-6);display:inline;fill:#8889f7;fill-opacity:1;stroke:#000000;stroke-width:0.820157;stroke-dasharray:none;stroke-dashoffset:0;stroke-opacity:0.697117"><tspan
         x="102.53125"
         y="234.54134"
         id="tspan2">Walker</tspan></text></g><metadata
     id="metadata1"><rdf:RDF><cc:Work
         rdf:about=""><cc:license
           rdf:resource="http://creativecommons.org/licenses/by-nc/4.0/" /></cc:Work><cc:License
         rdf:about="http://creativecommons.org/licenses/by-nc/4.0/"><cc:permits
           rdf:resource="http://creativecommons.org/ns#Reproduction" /><cc:permits
           rdf:resource="http://creativecommons.org/ns#Distribution" /><cc:requires
           rdf:resource="http://creativecommons.org/ns#Notice" /><cc:requires
           rdf:resource="http://creativecommons.org/ns#Attribution" /><cc:prohibits
           rdf:resource="http://creativecommons.org/ns#CommercialUse" /><cc:permits
           rdf:resource="http://creativecommons.org/ns#DerivativeWorks" /></cc:License></rdf:RDF></metadata></svg>
